<?xml version="1.0" encoding="UTF-8"?>
<svg version="1.1" xmlns="http://www.w3.org/2000/svg" width="300" height="300">
<path d="M0 0 C99 0 198 0 300 0 C300 99 300 198 300 300 C201 300 102 300 0 300 C0 201 0 102 0 0 Z " fill="#010101" transform="translate(0,0)"/>
<path d="M0 0 C2.80124785 2.40617116 5.54375166 4.87035368 8.25683594 7.37524414 C9.31837891 8.3478418 9.31837891 8.3478418 10.40136719 9.34008789 C26.66451596 24.94243152 38.2587908 46.76864971 44.25683594 68.37524414 C44.73636719 70.04393555 44.73636719 70.04393555 45.22558594 71.74633789 C49.61700466 90.30821425 49.4554617 114.06613987 44.25683594 132.37524414 C43.98347412 133.36234375 43.98347412 133.36234375 43.70458984 134.36938477 C37.21792401 157.49811475 26.57498447 175.86376162 10.25683594 193.37524414 C9.58136719 194.11645508 8.90589844 194.85766602 8.20996094 195.62133789 C-3.97537039 208.4709072 -25.72322321 225.09255722 -44.03613281 226.55883789 C-45.93066406 226.37524414 -45.93066406 226.37524414 -48.74316406 225.37524414 C-50.87747166 222.17378275 -50.99300441 221.35535533 -50.99853516 217.67944336 C-51.00549408 216.72770233 -51.012453 215.7759613 -51.0196228 214.79537964 C-51.01862579 213.7672818 -51.01762878 212.73918396 -51.01660156 211.67993164 C-51.03690248 209.49763496 -51.05775348 207.31534333 -51.07910156 205.13305664 C-51.1016375 201.6968154 -51.11814605 198.26077445 -51.12402344 194.82446289 C-51.13359489 191.50508448 -51.16744272 188.18660651 -51.20410156 184.86743164 C-51.19653336 183.34350296 -51.19653336 183.34350296 -51.18881226 181.78878784 C-51.30854701 173.02614956 -54.02694283 166.68538705 -58.74316406 159.37524414 C-57.51082031 159.14450195 -56.27847656 158.91375977 -55.00878906 158.67602539 C-36.92675129 155.16795268 -21.10001523 149.8134637 -9.74316406 134.37524414 C-0.30435808 119.20924599 1.762487 98.20160782 -1.39160156 80.79711914 C-3.32530862 74.48364822 -6.4645597 69.22902292 -10.25488281 63.84790039 C-11.82751765 61.23509763 -12.45678402 59.39922326 -12.74316406 56.37524414 C-12.58710693 55.75302979 -12.4310498 55.13081543 -12.27026367 54.48974609 C-11.33907952 50.7542269 -11.516782 46.95725491 -11.49316406 43.12524414 C-11.47253906 42.30411133 -11.45191406 41.48297852 -11.43066406 40.63696289 C-11.3940988 34.86879271 -12.42860521 30.66218383 -14.74316406 25.37524414 C-25.39110388 24.68081328 -33.77218124 29.20946243 -42.85400391 34.23828125 C-43.909021 34.82041382 -43.909021 34.82041382 -44.98535156 35.41430664 C-45.61296387 35.76702637 -46.24057617 36.11974609 -46.88720703 36.4831543 C-51.27297 38.59122821 -53.74891901 38.29257008 -58.42675781 36.95727539 C-65.89391789 35.12673119 -72.95357226 34.95197497 -80.59106445 35.0390625 C-82.8068473 35.06275679 -85.02142597 35.05958286 -87.23730469 35.05297852 C-96.48215771 35.07164978 -105.37800715 35.78705109 -114.37817383 38.03271484 C-118.00086442 38.55740101 -120.31020643 36.63706699 -123.24316406 34.75024414 C-132.06945583 29.41091137 -141.14566076 24.33627323 -151.74316406 25.37524414 C-155.18995208 35.42837587 -155.74610209 45.11423167 -153.80566406 55.56274414 C-153.1370136 61.08362839 -155.78701146 64.26362989 -158.88769531 68.63305664 C-167.24531533 80.98473927 -167.13664546 96.6723978 -164.93066406 110.93774414 C-162.07114871 125.37432512 -156.11418912 138.5206342 -143.95019531 147.41821289 C-132.80802937 154.32135137 -120.4410381 156.86232154 -107.74316406 159.37524414 C-108.35804687 160.44452148 -108.35804687 160.44452148 -108.98535156 161.53540039 C-112.57798604 167.64893685 -112.57798604 167.64893685 -114.55566406 174.37524414 C-115.74316406 177.37524414 -115.74316406 177.37524414 -117.46972656 178.46508789 C-125.26963163 181.45551086 -134.29035641 181.74880373 -141.98144531 178.33227539 C-148.36381642 174.86513366 -151.61177435 169.86735514 -155.72753906 164.03930664 C-159.36088232 159.23709714 -163.74467024 154.83829142 -169.74316406 153.37524414 C-172.43433907 153.23413384 -175.04391688 153.28374424 -177.74316406 153.37524414 C-177.74316406 154.69524414 -177.74316406 156.01524414 -177.74316406 157.37524414 C-175.53872809 159.65114799 -175.53872809 159.65114799 -172.68066406 161.87524414 C-165.84309756 167.67881571 -162.11281125 174.58914191 -158.16113281 182.57055664 C-154.98540141 188.85203088 -151.22704209 191.91209495 -144.74316406 194.37524414 C-141.10257347 195.2462793 -137.74358538 195.49289345 -134.00488281 195.47290039 C-132.93818359 195.46967773 -131.87148437 195.46645508 -130.77246094 195.46313477 C-129.66966797 195.45475586 -128.566875 195.44637695 -127.43066406 195.43774414 C-125.7474707 195.43097656 -125.7474707 195.43097656 -124.03027344 195.42407227 C-121.26784897 195.41231727 -118.50553408 195.39588491 -115.74316406 195.37524414 C-115.62708279 199.79169012 -115.55595086 204.20774431 -115.49316406 208.62524414 C-115.45964844 209.87950195 -115.42613281 211.13375977 -115.39160156 212.42602539 C-115.37871094 213.63129883 -115.36582031 214.83657227 -115.35253906 216.07836914 C-115.32111816 217.74367676 -115.32111816 217.74367676 -115.2890625 219.44262695 C-115.84676401 223.0442993 -116.87981244 224.19139265 -119.74316406 226.37524414 C-125.2060971 227.32771517 -129.52425272 225.06862285 -134.36816406 222.81274414 C-135.16432129 222.44850342 -135.96047852 222.0842627 -136.78076172 221.70898438 C-168.04923289 207.17454947 -190.4478749 183.48006931 -204.74316406 152.37524414 C-205.19433594 151.44454102 -205.64550781 150.51383789 -206.11035156 149.55493164 C-219.38724605 119.29020942 -217.5010442 83.38911056 -205.85449219 53.0793457 C-200.16270773 39.23000374 -192.82269316 26.46896226 -182.74316406 15.37524414 C-182.21352051 14.79194336 -181.68387695 14.20864258 -181.13818359 13.60766602 C-164.26225975 -4.66267723 -143.72934616 -17.8035106 -119.74316406 -24.62475586 C-118.30070312 -25.06561523 -118.30070312 -25.06561523 -116.82910156 -25.51538086 C-77.11987307 -37.18783419 -31.5758442 -26.35026435 0 0 Z " fill="#FCFCFC" transform="translate(233.7431640625,51.624755859375)"/>
</svg>
