<?xml version="1.0" encoding="UTF-8"?>
<svg version="1.1" xmlns="http://www.w3.org/2000/svg" width="320" height="320">
<path d="M0 0 C14.10521836 4.13890349 26.1704455 16.89232927 33.5078125 29.25 C40.4505465 42.04498621 43.57664899 53.58490843 43.5 68.1875 C43.49033203 70.10961304 43.49033203 70.10961304 43.48046875 72.07055664 C43.07502158 93.10979734 34.46038644 110.13928322 19.46972656 124.64453125 C12.63093612 130.95166822 4.49714059 135.33270176 -4 139 C-4.95390625 139.41636719 -5.9078125 139.83273437 -6.890625 140.26171875 C-22.55048836 145.86857938 -44.75178112 145.83073764 -60 139 C-60.89235352 138.60530518 -60.89235352 138.60530518 -61.80273438 138.20263672 C-81.62691548 129.2022955 -95.66117099 114.13652921 -104 94 C-104 91 -104 91 -102.7421875 89.66796875 C-101.81792969 88.93513672 -101.81792969 88.93513672 -100.875 88.1875 C-95.82848328 83.99417136 -91.3066026 79.33451331 -86.74951172 74.6237793 C-86.16443848 74.02734619 -85.57936523 73.43091309 -84.9765625 72.81640625 C-84.45143066 72.27443604 -83.92629883 71.73246582 -83.38525391 71.17407227 C-82 70 -82 70 -80 70 C-79.64808594 71.17175781 -79.29617187 72.34351563 -78.93359375 73.55078125 C-74.48307232 87.91055922 -69.05244949 100.89780253 -55.2265625 108.53125 C-43.69904443 113.9633955 -31.21827174 116.26875068 -18.6875 112.875 C-4.7449908 107.83695046 3.94996773 100.31640828 10.58984375 87.08203125 C15.30117002 76.78497743 15.73559415 64.46291613 12.375 53.625 C6.2127117 37.81273938 -4.09944944 29.26343452 -19 22 C-18.44387545 18.11863416 -16.72326862 16.37243082 -13.96484375 13.671875 C-12.75151367 12.47304687 -12.75151367 12.47304687 -11.51367188 11.25 C-10.66353516 10.425 -9.81339844 9.6 -8.9375 8.75 C-8.08349609 7.90953125 -7.22949219 7.0690625 -6.34960938 6.203125 C-4.23964588 4.12852403 -2.12300292 2.06124168 0 0 Z " fill="#000000" transform="translate(261,127)"/>
<path d="M0 0 C69.96 0 139.92 0 212 0 C208.11665962 4.53056378 204.30854146 8.79669224 200.0625 12.9375 C195.48648912 17.45103005 191.1548331 22.09218744 187 27 C185.31805992 28.68194008 183.2477417 28.12220343 181.00271934 28.12908131 C179.92151403 28.12471205 179.92151403 28.12471205 178.81846619 28.12025452 C177.67787344 28.12153615 177.67787344 28.12153615 176.51423842 28.12284368 C173.9468875 28.12450078 171.37960083 28.11897339 168.81225586 28.11352539 C166.97961936 28.11324354 165.14698275 28.11340121 163.31434631 28.1139679 C158.32281938 28.11425596 153.33131625 28.10835777 148.33979487 28.10139394 C143.12940894 28.09516191 137.91902251 28.09455672 132.70863342 28.09336853 C122.83468975 28.09025477 112.96075709 28.08204078 103.08681828 28.07201904 C91.84879999 28.06085929 80.61078119 28.0553478 69.37275875 28.05032361 C46.24849951 28.0398582 23.12425083 28.02205754 0 28 C0 18.76 0 9.52 0 0 Z " fill="#000000" transform="translate(16,49)"/>
<path d="M0 0 C9.24 0 18.48 0 28 0 C28 54.78 28 109.56 28 166 C18.43 166 8.86 166 -1 166 C-1.02311691 144.50394448 -1.04097815 123.00789194 -1.05181217 101.51182652 C-1.05697557 91.53156169 -1.0640191 81.55130471 -1.07543945 71.57104492 C-1.08538496 62.8755386 -1.09185311 54.18003795 -1.09408849 45.4845261 C-1.09539583 40.87736269 -1.09848312 36.27021554 -1.10573006 31.66305733 C-1.11248817 27.33181408 -1.11461739 23.00059388 -1.11310768 18.66934586 C-1.1133841 17.07494545 -1.11539047 15.48054432 -1.11920547 13.88614845 C-1.12413947 11.71883429 -1.1229994 9.55160857 -1.12025452 7.3842926 C-1.12117631 6.16844766 -1.1220981 4.95260271 -1.12304783 3.69991398 C-1 1 -1 1 0 0 Z " fill="#000000" transform="translate(87,98)"/>
<path d="M0 0 C1.58713426 0.00078817 3.17441152 0.02884037 4.76074219 0.0793457 C5.5985321 0.08642044 6.43632202 0.09349518 7.29949951 0.1007843 C9.96978865 0.12872629 12.63796427 0.19146082 15.30761719 0.25512695 C17.12008686 0.28021024 18.93258947 0.30302336 20.74511719 0.32348633 C25.18342889 0.37855191 29.62016499 0.46482028 34.05761719 0.56762695 C33.19665954 5.12187431 30.53159481 7.45826206 27.29980469 10.58325195 C26.71852814 11.15791199 26.13725159 11.73257202 25.5383606 12.324646 C23.67674501 14.16287656 21.80531175 15.9906901 19.93261719 17.81762695 C17.48872608 20.21483987 15.04913672 22.61636455 12.61230469 25.02075195 C12.02064514 25.60373047 11.4289856 26.18670898 10.81939697 26.78735352 C7.36721498 30.20808417 4.11528997 33.7179471 0.97216797 37.42602539 C-4.47023701 43.51385712 -10.45850472 49.12861958 -16.26318359 54.86791992 C-24.05727371 62.47552901 -24.05727371 62.47552901 -31.39160156 70.5168457 C-36.92007081 77.02203984 -43.19109318 82.88072341 -49.25488281 88.88012695 C-51.79552892 91.39416612 -54.33282669 93.91151674 -56.86816406 96.4309082 C-57.73843987 97.2887365 -57.73843987 97.2887365 -58.626297 98.16389465 C-61.01473076 100.5376594 -63.0678284 102.75579533 -64.94238281 105.56762695 C-69.47002363 105.07706551 -71.51329702 103.50650291 -74.75488281 100.38012695 C-78.95174931 96.44123876 -83.25723744 92.90481151 -87.94238281 89.56762695 C-87.07565485 84.91996883 -84.25548294 82.51826434 -80.96582031 79.33325195 C-80.36234772 78.73639587 -79.75887512 78.13953979 -79.13711548 77.52459717 C-77.20417256 75.61504478 -75.2614008 73.71589768 -73.31738281 71.81762695 C-71.39646866 69.9320255 -69.477789 68.04423107 -67.56192017 66.15350342 C-66.37086526 64.97912521 -65.17672602 63.80786305 -63.97885132 62.64044189 C-61.07328888 59.78580076 -58.30783493 56.87561217 -55.65454102 53.78417969 C-51.27730011 48.71918837 -46.52733248 44.04691328 -41.77441406 39.3371582 C-40.80721447 38.37437656 -39.8403165 37.41129183 -38.873703 36.44792175 C-35.83693315 33.42246501 -32.79620765 30.40100388 -29.75488281 27.38012695 C-26.21583773 23.86478613 -22.67848946 20.34777077 -19.14533043 16.82651329 C-17.74045491 15.42806841 -16.3325154 14.03270377 -14.92451477 12.6374054 C-14.06649765 11.7826915 -13.20848053 10.9279776 -12.32446289 10.04736328 C-11.5728035 9.3009407 -10.8211441 8.55451813 -10.04670715 7.78547668 C-7.85371851 5.56492042 -7.85371851 5.56492042 -5.91490173 2.82312012 C-3.94238281 0.56762695 -3.94238281 0.56762695 0 0 Z " fill="#000000" transform="translate(265.9423828125,50.432373046875)"/>
</svg>
